# xmcd CD database file
# Generated: Sat Sep 6 18:32:51 2003 by KSCD
# 
# Track frame offsets:
#       150
#       18144
#       34086
#       52750
#       69739
#       89549
#       112435
#       132165
#       154859
#       182190
#       198926
#       221559
#       243839
#       245364
#       258050
#       276804
#
# Disc length: 4209 seconds
#
# Revision: 1
# Processed by: cddbd v1.4PL0 Copyright (c) Steve Scherf et al.
# Submitted via: Kscd 1.3.3
#
DISCID=de106f10
DTITLE=Beyonce Knowles - Dangerously in Love
DYEAR=1900
DGENRE=
TTITLE0=Crazy in Love(feat. Jay-Z)
TTITLE1=Naughty Girl
TTITLE2=Baby Boy(feat. Sean Paul)
TTITLE3=Hip Hop Star
TTITLE4=Be With You
TTITLE5=Me, Myself and I
TTITLE6=Yes
TTITLE7=Signs(feat Missy Elliott)
TTITLE8=Speechless
TTITLE9=That's How You Like It
TTITLE10=The Closer I Get To You(feat. Luther Vandross)
TTITLE11=Dangerously in Love 2
TTITLE12=Beyonce Interlude
TTITLE13=Gift From Virgo
TTITLE14=Work It Out
TTITLE15=Bonnie and Clyde '03
EXTD=
EXTT0=
EXTT1=
EXTT2=
EXTT3=
EXTT4=
EXTT5=
EXTT6=
EXTT7=
EXTT8=
EXTT9=
EXTT10=
EXTT11=
EXTT12=
EXTT13=
EXTT14=
EXTT15=
PLAYORDER=
